<?xml version="1.0" encoding="utf-8"?>
<!-- Generator: Adobe Illustrator 24.0.2, SVG Export Plug-In . SVG Version: 6.00 Build 0)  -->
<svg version="1.1" id="Layer_1" xmlns="http://www.w3.org/2000/svg" xmlns:xlink="http://www.w3.org/1999/xlink" x="0px" y="0px"
	 viewBox="0 0 606.6 527.2" style="enable-background:new 0 0 606.6 527.2;" xml:space="preserve">
<style type="text/css">
	.st0{fill:none;stroke:#FFFFFF;stroke-miterlimit:10;}
</style>
<title>BIBO2_bottom</title>
<g>
	<line class="st0" x1="0" y1="0" x2="0" y2="527.2"/>
	<line class="st0" x1="141.7" y1="0" x2="141.7" y2="513.1"/>
	<line class="st0" x1="283.5" y1="0" x2="283.5" y2="513.1"/>
	<line class="st0" x1="13.5" y1="513.1" x2="606.6" y2="513.1"/>
	<line class="st0" x1="0" y1="527.2" x2="606.6" y2="527.2"/>
	<line class="st0" x1="13.5" y1="371.3" x2="606.6" y2="371.3"/>
	<line class="st0" x1="13.5" y1="229.6" x2="606.6" y2="229.6"/>
	<line class="st0" x1="13.5" y1="87.9" x2="606.6" y2="87.9"/>
	<line class="st0" x1="85" y1="0" x2="85" y2="513.1"/>
	<line class="st0" x1="113.4" y1="0" x2="113.4" y2="513.1"/>
	<line class="st0" x1="170.1" y1="0" x2="170.1" y2="513.1"/>
	<line class="st0" x1="198.4" y1="0" x2="198.4" y2="513.1"/>
	<line class="st0" x1="226.8" y1="0" x2="226.8" y2="513.1"/>
	<line class="st0" x1="255.1" y1="0" x2="255.1" y2="513.1"/>
	<line class="st0" x1="311.8" y1="0" x2="311.8" y2="513.1"/>
	<line class="st0" x1="340.2" y1="0" x2="340.2" y2="513.1"/>
	<line class="st0" x1="368.5" y1="0" x2="368.5" y2="513.1"/>
	<line class="st0" x1="396.9" y1="0" x2="396.9" y2="513.1"/>
	<line class="st0" x1="425.2" y1="0" x2="425.2" y2="513.1"/>
	<line class="st0" x1="453.5" y1="0" x2="453.5" y2="513.1"/>
	<line class="st0" x1="481.9" y1="0" x2="481.9" y2="513.1"/>
	<line class="st0" x1="510.2" y1="0" x2="510.2" y2="513.1"/>
	<line class="st0" x1="538.6" y1="0" x2="538.6" y2="513.1"/>
	<line class="st0" x1="566.9" y1="0" x2="566.9" y2="513.1"/>
	<line class="st0" x1="595.3" y1="0" x2="595.3" y2="513.1"/>
	<line class="st0" x1="28.4" y1="0" x2="28.4" y2="513.1"/>
	<line class="st0" x1="56.7" y1="0" x2="56.7" y2="513.1"/>
	<line class="st0" x1="13.5" y1="399.7" x2="606.6" y2="399.7"/>
	<line class="st0" x1="13.5" y1="428" x2="606.6" y2="428"/>
	<line class="st0" x1="13.5" y1="456.4" x2="606.6" y2="456.4"/>
	<line class="st0" x1="13.5" y1="484.7" x2="606.6" y2="484.7"/>
	<line class="st0" x1="13.5" y1="343" x2="606.6" y2="343"/>
	<line class="st0" x1="13.5" y1="314.7" x2="606.6" y2="314.7"/>
	<line class="st0" x1="13.5" y1="286.3" x2="606.6" y2="286.3"/>
	<line class="st0" x1="13.5" y1="258" x2="606.6" y2="258"/>
	<line class="st0" x1="13.5" y1="201.3" x2="606.6" y2="201.3"/>
	<line class="st0" x1="13.5" y1="172.9" x2="606.6" y2="172.9"/>
	<line class="st0" x1="13.5" y1="144.6" x2="606.6" y2="144.6"/>
	<line class="st0" x1="13.5" y1="116.2" x2="606.6" y2="116.2"/>
	<line class="st0" x1="13.5" y1="59.5" x2="606.6" y2="59.5"/>
	<line class="st0" x1="13.5" y1="31.2" x2="606.6" y2="31.2"/>
	<line class="st0" x1="13.5" y1="2.8" x2="606.6" y2="2.8"/>
	<path class="st0" d="M26.4,519.7c0.2,0,0.4,0,0.6,0s0.3-0.1,0.5-0.2c0.1-0.1,0.3-0.2,0.4-0.3s0.2-0.3,0.2-0.4h0.7v5.6h-1v-4h-1.4
		C26.4,520.4,26.4,519.7,26.4,519.7z"/>
	<path class="st0" d="M58.1,524.4h-3.8c0-0.4,0.1-0.9,0.3-1.2c0.2-0.4,0.5-0.7,0.9-0.9l0.6-0.4c0.2-0.1,0.4-0.3,0.5-0.4
		c0.2-0.1,0.3-0.3,0.4-0.5c0.1-0.2,0.2-0.4,0.2-0.6c0-0.1,0-0.2,0-0.3s-0.1-0.2-0.1-0.3c-0.1-0.1-0.2-0.2-0.3-0.2
		c-0.1-0.1-0.3-0.1-0.5-0.1s-0.3,0-0.5,0.1c-0.1,0.1-0.2,0.2-0.3,0.3s-0.1,0.3-0.2,0.4c0,0.2-0.1,0.4-0.1,0.6h-0.9
		c0-0.3,0-0.6,0.1-0.9c0.1-0.3,0.2-0.5,0.4-0.7s0.4-0.3,0.6-0.5c0.5-0.2,1.1-0.2,1.7,0c0.2,0.1,0.4,0.2,0.6,0.4
		c0.1,0.2,0.2,0.3,0.3,0.5s0.1,0.4,0.1,0.6c0,0.2,0,0.4-0.1,0.6c-0.1,0.2-0.2,0.3-0.3,0.5s-0.3,0.3-0.4,0.4l-0.5,0.4l-0.5,0.3
		l-0.5,0.3c-0.1,0.1-0.2,0.2-0.3,0.3s-0.2,0.2-0.2,0.3H58L58.1,524.4L58.1,524.4z"/>
	<path class="st0" d="M84.2,521.1h0.4c0.1,0,0.3-0.1,0.4-0.1c0.1-0.1,0.2-0.2,0.3-0.3c0.1-0.1,0.1-0.3,0.1-0.4
		c0-0.2-0.1-0.4-0.2-0.6c-0.3-0.2-0.7-0.3-1-0.1c-0.1,0.1-0.2,0.2-0.3,0.3c-0.1,0.1-0.1,0.2-0.2,0.4c0,0.1,0,0.3,0,0.4h-0.9
		c0-0.3,0.1-0.5,0.2-0.8c0.1-0.2,0.2-0.4,0.4-0.6c0.2-0.2,0.4-0.3,0.6-0.4c0.2-0.1,0.5-0.2,0.8-0.2c0.2,0,0.4,0,0.6,0.1
		s0.4,0.2,0.6,0.3s0.3,0.3,0.4,0.5s0.2,0.4,0.2,0.7s-0.1,0.5-0.2,0.7s-0.3,0.4-0.6,0.5l0,0c0.3,0.1,0.6,0.2,0.8,0.5
		c0.3,0.5,0.4,1.1,0.1,1.6c-0.1,0.2-0.3,0.4-0.4,0.5c-0.2,0.2-0.4,0.3-0.6,0.3c-0.2,0.1-0.5,0.1-0.8,0.1s-0.6,0-0.8-0.1
		c-0.2-0.1-0.4-0.2-0.6-0.4s-0.3-0.4-0.4-0.6c-0.1-0.3-0.1-0.5-0.1-0.8h0.9c0,0.3,0.1,0.6,0.3,0.8c0.2,0.2,0.5,0.4,0.8,0.3
		c0.3,0,0.6-0.1,0.8-0.3c0.2-0.2,0.3-0.5,0.3-0.7s0-0.4-0.1-0.5s-0.2-0.2-0.3-0.3c-0.1-0.1-0.3-0.1-0.5-0.1s-0.4,0-0.5,0L84.2,521.1
		z"/>
	<path class="st0" d="M114.7,523H114v1.4h-0.9v-1.3h-2.4v-0.9l2.4-3.4h0.9v3.5h0.7V523z M111.4,522.3h1.7v-2.5l0,0L111.4,522.3z"/>
	<path class="st0" d="M140,518.8h2.9v0.8h-2.2l-0.3,1.4l0,0c0.1-0.1,0.3-0.3,0.5-0.3c0.2-0.1,0.4-0.1,0.6-0.1c0.3,0,0.5,0,0.7,0.1
		s0.4,0.2,0.6,0.4c0.2,0.2,0.3,0.4,0.3,0.6c0.1,0.2,0.1,0.5,0.1,0.7s0,0.5-0.1,0.7s-0.2,0.5-0.3,0.7c-0.4,0.4-0.9,0.7-1.5,0.7
		c-0.3,0-0.5,0-0.8-0.1c-0.2-0.1-0.4-0.2-0.6-0.3c-0.2-0.1-0.3-0.3-0.4-0.5c-0.1-0.2-0.2-0.5-0.2-0.7h0.9c0,0.3,0.1,0.5,0.3,0.7
		s0.5,0.3,0.7,0.2c0.2,0,0.3,0,0.5-0.1c0.1-0.1,0.2-0.2,0.3-0.3s0.1-0.2,0.2-0.4c0-0.2,0.1-0.3,0.1-0.5c0-0.1,0-0.3-0.1-0.4
		c0-0.1-0.1-0.3-0.2-0.4c-0.1-0.1-0.2-0.2-0.3-0.3s-0.3-0.1-0.5-0.1s-0.4,0-0.5,0.1c-0.2,0.1-0.3,0.2-0.4,0.4h-0.9L140,518.8z"/>
	<path class="st0" d="M170.4,520.2c0-0.2-0.1-0.4-0.2-0.5c-0.2-0.1-0.4-0.2-0.6-0.2c-0.1,0-0.3,0-0.4,0.1c-0.1,0.1-0.2,0.1-0.3,0.2
		c-0.1,0.1-0.1,0.2-0.2,0.3c-0.1,0.1-0.1,0.3-0.1,0.4c0,0.2,0,0.3-0.1,0.4v0.4l0,0c0.1-0.2,0.3-0.4,0.5-0.5s0.5-0.2,0.7-0.2
		c0.3,0,0.5,0,0.8,0.1c0.2,0.1,0.4,0.2,0.6,0.4c0.2,0.2,0.3,0.4,0.4,0.6c0.1,0.2,0.1,0.5,0.1,0.7c0,0.3,0,0.5-0.1,0.8
		c-0.1,0.2-0.2,0.4-0.4,0.6c-0.2,0.2-0.4,0.3-0.6,0.4c-0.2,0.1-0.5,0.1-0.8,0.1s-0.7-0.1-1-0.2c-0.3-0.2-0.5-0.4-0.6-0.6
		c-0.2-0.3-0.3-0.6-0.3-0.9c-0.1-0.4-0.1-0.8-0.1-1.2c0-0.3,0-0.7,0.1-1s0.2-0.6,0.4-0.9c0.2-0.3,0.4-0.5,0.6-0.7
		c0.3-0.2,0.6-0.3,1-0.3c0.2,0,0.4,0,0.6,0.1c0.2,0.1,0.4,0.2,0.5,0.3c0.2,0.1,0.3,0.3,0.4,0.5c0.1,0.2,0.1,0.4,0.2,0.6h-1.1V520.2z
		 M169.5,523.7c0.2,0,0.3,0,0.4-0.1c0.1-0.1,0.2-0.2,0.3-0.3s0.2-0.2,0.2-0.4c0-0.1,0.1-0.3,0.1-0.4c0-0.1,0-0.3-0.1-0.4
		c0-0.1-0.1-0.3-0.2-0.4c-0.1-0.1-0.2-0.2-0.3-0.3s-0.3-0.1-0.4-0.1c-0.1,0-0.3,0-0.4,0.1c-0.1,0.1-0.2,0.1-0.3,0.3
		c-0.1,0.1-0.1,0.2-0.2,0.4c0,0.1-0.1,0.3-0.1,0.4c0,0.1,0,0.3,0.1,0.4c0,0.1,0.1,0.3,0.2,0.4c0.1,0.1,0.2,0.2,0.3,0.3
		C169.2,523.7,169.4,523.7,169.5,523.7L169.5,523.7z"/>
	<path class="st0" d="M196,518.8h3.8v0.8c-0.3,0.3-0.6,0.6-0.8,1s-0.5,0.7-0.6,1.1c-0.2,0.4-0.3,0.8-0.4,1.3
		c-0.1,0.5-0.2,0.9-0.2,1.4h-1c0-0.4,0.1-0.9,0.2-1.3c0.1-0.4,0.3-0.9,0.5-1.3c0.2-0.4,0.4-0.8,0.7-1.2c0.2-0.4,0.5-0.7,0.8-1h-3
		V518.8z"/>
	<path class="st0" d="M226.3,524.5c-0.3,0-0.5,0-0.8-0.1c-0.2-0.1-0.4-0.2-0.6-0.3c-0.2-0.2-0.4-0.4-0.4-0.6
		c-0.1-0.2-0.2-0.5-0.1-0.7c0-0.3,0.1-0.6,0.3-0.9c0.2-0.2,0.5-0.4,0.8-0.5l0,0c-0.2-0.1-0.4-0.2-0.6-0.5c-0.1-0.2-0.2-0.5-0.2-0.7
		c0-0.4,0.1-0.8,0.4-1.1c0.8-0.5,1.8-0.5,2.6,0c0.3,0.3,0.5,0.7,0.4,1.1c0,0.3-0.1,0.5-0.2,0.7c-0.1,0.2-0.4,0.4-0.6,0.5l0,0
		c0.3,0.1,0.6,0.2,0.8,0.5s0.3,0.6,0.3,0.9c0,0.3,0,0.5-0.1,0.7s-0.2,0.4-0.4,0.6c-0.2,0.2-0.4,0.3-0.6,0.3
		C226.8,524.4,226.5,524.5,226.3,524.5z M226.3,523.7c0.3,0,0.6-0.1,0.8-0.3s0.3-0.5,0.3-0.8s-0.1-0.5-0.3-0.7
		c-0.5-0.3-1.1-0.3-1.5,0c-0.2,0.2-0.3,0.4-0.3,0.7s0.1,0.6,0.3,0.8C225.7,523.7,226,523.8,226.3,523.7z M226.3,519.4
		c-0.2,0-0.4,0.1-0.6,0.2c-0.3,0.3-0.3,0.9,0,1.2c0.4,0.3,0.9,0.3,1.3,0c0.3-0.3,0.3-0.9,0-1.2C226.8,519.4,226.5,519.4,226.3,519.4
		L226.3,519.4z"/>
	<path class="st0" d="M253.8,522.9c0,0.2,0.1,0.4,0.2,0.6c0.2,0.1,0.4,0.2,0.6,0.2c0.2,0,0.4-0.1,0.6-0.2c0.1-0.1,0.3-0.3,0.3-0.5
		c0.1-0.2,0.1-0.4,0.2-0.6c0-0.2,0-0.4,0.1-0.6l0,0c-0.1,0.2-0.3,0.4-0.5,0.5s-0.5,0.2-0.7,0.2s-0.5,0-0.7-0.1s-0.4-0.2-0.6-0.4
		c-0.2-0.2-0.3-0.4-0.4-0.6c-0.1-0.3-0.1-0.5-0.1-0.8s0-0.5,0.1-0.8c0.1-0.2,0.2-0.4,0.4-0.6c0.2-0.2,0.4-0.3,0.6-0.4
		c0.3-0.1,0.5-0.2,0.8-0.2s0.7,0.1,1,0.2c0.3,0.1,0.5,0.4,0.6,0.6c0.2,0.3,0.3,0.6,0.3,0.9c0.1,0.4,0.1,0.8,0.1,1.2
		c0,0.3,0,0.7-0.1,1s-0.2,0.6-0.4,0.9c-0.2,0.3-0.4,0.5-0.7,0.7s-0.6,0.3-1,0.3c-0.2,0-0.4,0-0.6-0.1c-0.2-0.1-0.4-0.2-0.5-0.3
		c-0.3-0.3-0.5-0.7-0.5-1.1L253.8,522.9z M254.7,519.4c-0.1,0-0.3,0-0.4,0.1c-0.1,0.1-0.2,0.1-0.3,0.3c-0.1,0.1-0.1,0.2-0.2,0.4
		c0,0.1-0.1,0.3-0.1,0.4c0,0.1,0,0.3,0.1,0.4c0,0.1,0.1,0.3,0.2,0.4c0.1,0.1,0.2,0.2,0.3,0.3s0.3,0.1,0.4,0.1c0.2,0,0.3,0,0.4-0.1
		c0.1-0.1,0.2-0.1,0.3-0.3c0.1-0.1,0.1-0.2,0.2-0.4c0-0.1,0.1-0.3,0.1-0.4c0-0.1,0-0.3-0.1-0.4c0-0.1-0.1-0.3-0.2-0.4
		c-0.1-0.1-0.2-0.2-0.3-0.3C255,519.4,254.9,519.4,254.7,519.4L254.7,519.4z"/>
	<path class="st0" d="M278.1,519.7c0.2,0,0.4,0,0.6,0s0.3-0.1,0.5-0.2c0.1-0.1,0.3-0.2,0.4-0.3s0.2-0.3,0.2-0.4h0.7v5.6h-1v-4H278
		L278.1,519.7z"/>
	<path class="st0" d="M284.3,518.6c0.4,0,0.7,0.1,1,0.3s0.5,0.4,0.6,0.7s0.2,0.6,0.3,0.9c0.1,0.7,0.1,1.3,0,2c0,0.3-0.1,0.6-0.3,0.9
		c-0.1,0.3-0.3,0.5-0.6,0.7c-0.3,0.2-0.6,0.3-1,0.3s-0.7-0.1-1-0.3s-0.5-0.4-0.6-0.7s-0.2-0.6-0.3-0.9c-0.1-0.7-0.1-1.3,0-2
		c0-0.3,0.1-0.6,0.3-0.9c0.1-0.3,0.3-0.5,0.6-0.7C283.6,518.7,284,518.6,284.3,518.6z M284.3,523.7c0.2,0,0.4-0.1,0.5-0.2
		c0.1-0.1,0.3-0.3,0.3-0.5c0.1-0.2,0.1-0.5,0.2-0.7c0.1-0.6,0.1-1.1,0-1.7c0-0.2-0.1-0.5-0.2-0.7s-0.2-0.3-0.3-0.5
		c-0.1-0.1-0.3-0.2-0.5-0.2s-0.4,0.1-0.5,0.2c-0.1,0.1-0.2,0.3-0.3,0.5c-0.1,0.2-0.1,0.4-0.2,0.7c-0.1,0.6-0.1,1.1,0,1.7
		c0,0.2,0.1,0.5,0.2,0.7s0.2,0.3,0.3,0.5C284,523.7,284.2,523.7,284.3,523.7z"/>
	<path class="st0" d="M307.2,519.7c0.2,0,0.4,0,0.6,0s0.3-0.1,0.5-0.2c0.1-0.1,0.3-0.2,0.4-0.3s0.2-0.3,0.2-0.4h0.8v5.6h-1v-4h-1.4
		v-0.7H307.2z"/>
	<path class="st0" d="M311.7,519.7c0.2,0,0.4,0,0.6,0s0.3-0.1,0.5-0.2c0.1-0.1,0.3-0.2,0.4-0.3s0.2-0.3,0.2-0.4h0.8v5.6h-1v-4h-1.4
		v-0.7H311.7z"/>
	<path class="st0" d="M334.8,519.7c0.2,0,0.4,0,0.6,0s0.3-0.1,0.5-0.2c0.1-0.1,0.3-0.2,0.4-0.3s0.2-0.3,0.2-0.4h0.7v5.6h-1v-4h-1.4
		L334.8,519.7z"/>
	<path class="st0" d="M342.9,524.4h-3.8c0-0.4,0.1-0.9,0.3-1.2c0.2-0.4,0.5-0.7,0.9-0.9l0.6-0.4c0.2-0.1,0.4-0.3,0.5-0.4
		c0.2-0.1,0.3-0.3,0.4-0.5s0.2-0.4,0.2-0.6c0-0.1,0-0.2,0-0.3s-0.1-0.2-0.1-0.3c-0.1-0.1-0.2-0.2-0.3-0.2c-0.1-0.1-0.3-0.1-0.5-0.1
		s-0.3,0-0.5,0.1c-0.1,0.1-0.2,0.2-0.3,0.3c-0.1,0.1-0.1,0.3-0.2,0.4c0,0.2-0.1,0.4-0.1,0.6h-0.9c0-0.3,0-0.6,0.1-0.9
		c0.1-0.3,0.2-0.5,0.4-0.7c0.2-0.2,0.4-0.3,0.6-0.5c0.3-0.1,0.5-0.2,0.8-0.2s0.6,0.1,0.9,0.2c0.2,0.1,0.4,0.3,0.5,0.4
		c0.1,0.2,0.2,0.3,0.3,0.5c0.1,0.2,0.1,0.4,0.1,0.6c0,0.2,0,0.4-0.1,0.6c-0.1,0.2-0.2,0.3-0.3,0.5c-0.1,0.1-0.3,0.3-0.4,0.4
		l-0.5,0.4l-0.5,0.3c-0.2,0.1-0.3,0.2-0.4,0.3s-0.3,0.2-0.4,0.3s-0.2,0.2-0.2,0.3h2.7L342.9,524.4z"/>
	<path class="st0" d="M363.1,519.7c0.2,0,0.4,0,0.6,0s0.3-0.1,0.5-0.2c0.1-0.1,0.3-0.2,0.4-0.3s0.2-0.3,0.2-0.4h0.8v5.6h-1v-4h-1.4
		v-0.7H363.1z"/>
	<path class="st0" d="M369,521.1h0.5c0.1,0,0.3-0.1,0.4-0.1c0.1-0.1,0.2-0.2,0.3-0.3c0.1-0.1,0.1-0.3,0.1-0.4c0-0.2-0.1-0.4-0.3-0.6
		c-0.2-0.1-0.4-0.2-0.6-0.2c-0.1,0-0.3,0-0.4,0.1s-0.2,0.2-0.3,0.3c-0.1,0.1-0.1,0.2-0.2,0.4c0,0.1,0,0.3,0,0.4h-0.9
		c0-0.3,0.1-0.5,0.1-0.8c0.1-0.2,0.2-0.4,0.4-0.6c0.2-0.2,0.4-0.3,0.6-0.4c0.2-0.1,0.5-0.2,0.8-0.2c0.2,0,0.4,0,0.6,0.1
		s0.4,0.2,0.6,0.3s0.3,0.3,0.4,0.5s0.2,0.4,0.1,0.7c0,0.3-0.1,0.5-0.2,0.7s-0.4,0.4-0.6,0.5l0,0c0.3,0,0.6,0.2,0.7,0.5
		c0.3,0.5,0.4,1.1,0.1,1.6c-0.1,0.2-0.2,0.4-0.4,0.5c-0.2,0.2-0.4,0.3-0.6,0.3c-0.2,0.1-0.5,0.1-0.8,0.1s-0.6,0-0.9-0.1
		c-0.2-0.1-0.4-0.2-0.6-0.4s-0.3-0.4-0.4-0.6c-0.1-0.3-0.1-0.5-0.1-0.8h0.9c0,0.3,0.1,0.6,0.3,0.8c0.2,0.2,0.5,0.4,0.8,0.3
		c0.3,0,0.5-0.1,0.8-0.3c0.3-0.3,0.4-0.8,0.2-1.3c-0.1-0.1-0.2-0.2-0.3-0.3c-0.1-0.1-0.3-0.1-0.5-0.1s-0.4,0-0.5,0L369,521.1z"/>
	<path class="st0" d="M391.3,519.7c0.2,0,0.4,0,0.6,0s0.3-0.1,0.5-0.2c0.1-0.1,0.3-0.2,0.4-0.3s0.2-0.3,0.2-0.4h0.7v5.6h-1v-4h-1.4
		L391.3,519.7L391.3,519.7z"/>
	<path class="st0" d="M399.5,523h-0.7v1.4h-0.9v-1.3h-2.4v-0.9l2.4-3.4h0.9v3.5h0.7V523z M396.3,522.3h1.7v-2.5l0,0L396.3,522.3z"/>
	<path class="st0" d="M419.8,519.7c0.2,0,0.4,0,0.6,0s0.3-0.1,0.5-0.2c0.1-0.1,0.3-0.2,0.4-0.3s0.2-0.3,0.2-0.4h0.7v5.6h-1v-4h-1.4
		L419.8,519.7z"/>
	<path class="st0" d="M424.8,518.8h2.9v0.8h-2.2l-0.3,1.4l0,0c0.1-0.1,0.3-0.3,0.5-0.3c0.2-0.1,0.4-0.1,0.6-0.1c0.3,0,0.5,0,0.7,0.1
		s0.4,0.2,0.5,0.4c0.2,0.2,0.3,0.4,0.4,0.6c0.1,0.2,0.1,0.5,0.1,0.7s0,0.5-0.1,0.7s-0.2,0.5-0.3,0.7c-0.2,0.2-0.4,0.4-0.6,0.5
		c-0.3,0.1-0.6,0.2-0.9,0.2s-0.5,0-0.8-0.1c-0.2-0.1-0.4-0.2-0.6-0.3s-0.3-0.3-0.4-0.5s-0.2-0.5-0.2-0.7h0.9c0,0.5,0.5,0.9,1,0.9
		c0.2,0,0.3,0,0.5-0.1c0.1-0.1,0.2-0.2,0.3-0.3c0.1-0.1,0.1-0.3,0.2-0.4c0-0.2,0-0.3,0-0.5c0-0.1,0-0.3-0.1-0.4
		c0-0.1-0.1-0.3-0.2-0.4c-0.1-0.1-0.2-0.2-0.3-0.3c-0.1-0.1-0.3-0.1-0.5-0.1s-0.4,0-0.5,0.1c-0.2,0.1-0.3,0.2-0.4,0.4h-0.9
		L424.8,518.8z"/>
	<path class="st0" d="M448.2,519.7c0.2,0,0.4,0,0.6,0s0.3-0.1,0.5-0.2c0.1-0.1,0.3-0.2,0.4-0.3s0.2-0.3,0.2-0.4h0.8v5.6h-1v-4h-1.4
		v-0.7H448.2z"/>
	<path class="st0" d="M455.4,520.2c0-0.2-0.1-0.4-0.2-0.5c-0.2-0.1-0.4-0.2-0.6-0.2c-0.3,0-0.5,0.1-0.7,0.3
		c-0.1,0.1-0.2,0.2-0.2,0.3c-0.1,0.1-0.1,0.3-0.1,0.4c0,0.1-0.1,0.3-0.1,0.4c0,0.1,0,0.3,0,0.4l0,0c0.1-0.2,0.3-0.4,0.5-0.5
		s0.5-0.2,0.7-0.2c0.3,0,0.5,0,0.7,0.1s0.4,0.2,0.6,0.4s0.3,0.4,0.4,0.6c0.1,0.2,0.1,0.5,0.1,0.7c0,0.3,0,0.5-0.1,0.8
		c-0.1,0.2-0.2,0.4-0.4,0.6c-0.2,0.2-0.4,0.3-0.6,0.4c-0.2,0.1-0.5,0.1-0.8,0.1s-0.7-0.1-1-0.2c-0.3-0.2-0.5-0.4-0.6-0.6
		c-0.2-0.3-0.3-0.6-0.3-0.9c-0.1-0.4-0.1-0.8-0.1-1.2c0-0.3,0-0.7,0.1-1s0.2-0.6,0.4-0.9c0.2-0.3,0.4-0.5,0.6-0.7
		c0.3-0.2,0.6-0.3,1-0.3s0.8,0.2,1.2,0.4c0.2,0.1,0.3,0.3,0.4,0.5s0.2,0.4,0.2,0.6L455.4,520.2z M454.4,523.7c0.1,0,0.3,0,0.4-0.1
		s0.2-0.1,0.3-0.3c0.1-0.1,0.1-0.2,0.2-0.4c0-0.1,0.1-0.3,0.1-0.4c0-0.1,0-0.3-0.1-0.4c0-0.1-0.1-0.3-0.2-0.4
		c-0.1-0.1-0.2-0.2-0.3-0.3c-0.1-0.1-0.3-0.1-0.4-0.1c-0.2,0-0.3,0-0.4,0.1c-0.2,0.1-0.4,0.3-0.5,0.6c0,0.1-0.1,0.3-0.1,0.4
		c0,0.1,0,0.3,0.1,0.4c0,0.1,0.1,0.3,0.2,0.4c0.1,0.1,0.2,0.2,0.3,0.3C454.1,523.7,454.3,523.7,454.4,523.7z"/>
	<path class="st0" d="M476.5,519.7c0.2,0,0.4,0,0.6,0s0.3-0.1,0.5-0.2c0.1-0.1,0.3-0.2,0.4-0.3s0.2-0.3,0.2-0.4h0.8v5.6h-1v-4h-1.4
		L476.5,519.7z"/>
	<path class="st0" d="M480.8,518.8h3.8v0.8c-0.3,0.3-0.6,0.6-0.8,1c-0.2,0.4-0.5,0.7-0.6,1.1c-0.2,0.4-0.3,0.8-0.4,1.3
		s-0.2,0.9-0.2,1.4h-1c0-0.4,0.1-0.9,0.2-1.3c0.1-0.4,0.3-0.9,0.5-1.3c0.2-0.4,0.4-0.8,0.7-1.2c0.2-0.4,0.5-0.7,0.8-1h-2.9v-0.8
		H480.8z"/>
	<path class="st0" d="M504.9,519.7c0.2,0,0.4,0,0.6,0s0.3-0.1,0.5-0.2c0.1-0.1,0.3-0.2,0.4-0.3s0.2-0.3,0.2-0.4h0.7v5.6h-1v-4h-1.4
		L504.9,519.7z"/>
	<path class="st0" d="M511.1,524.5c-0.3,0-0.5,0-0.8-0.1c-0.2-0.1-0.4-0.2-0.6-0.3c-0.2-0.2-0.3-0.3-0.4-0.6
		c-0.1-0.2-0.2-0.5-0.1-0.7c0-0.3,0.1-0.6,0.3-0.9c0.2-0.2,0.4-0.4,0.7-0.5l0,0c-0.2-0.1-0.4-0.2-0.6-0.5c-0.1-0.2-0.2-0.5-0.2-0.7
		c0-0.4,0.1-0.8,0.5-1.1s0.8-0.4,1.3-0.4s0.9,0.1,1.3,0.4c0.3,0.3,0.5,0.7,0.5,1.1c0,0.3-0.1,0.5-0.2,0.7c-0.1,0.2-0.4,0.4-0.6,0.5
		l0,0c0.3,0.1,0.6,0.2,0.8,0.5s0.3,0.6,0.3,0.9c0,0.3,0,0.5-0.2,0.7c-0.1,0.2-0.2,0.4-0.4,0.6c-0.2,0.2-0.4,0.3-0.6,0.3
		C511.6,524.4,511.4,524.5,511.1,524.5z M511.1,523.7c0.3,0,0.5-0.1,0.8-0.3c0.2-0.2,0.3-0.5,0.3-0.8s-0.1-0.5-0.3-0.7
		s-0.5-0.3-0.8-0.3s-0.5,0.1-0.8,0.3c-0.2,0.2-0.3,0.4-0.3,0.7s0.1,0.6,0.3,0.8C510.6,523.7,510.8,523.8,511.1,523.7z M511.1,519.4
		c-0.2,0-0.5,0.1-0.6,0.2c-0.3,0.3-0.3,0.9,0,1.2c0.4,0.3,0.9,0.3,1.3,0c0.3-0.3,0.3-0.9,0-1.2C511.6,519.4,511.3,519.4,511.1,519.4
		L511.1,519.4z"/>
	<path class="st0" d="M533.3,519.7c0.2,0,0.4,0,0.6,0c0.2,0,0.3-0.1,0.5-0.2c0.1-0.1,0.3-0.2,0.4-0.3c0.1-0.1,0.2-0.3,0.2-0.4h0.7
		v5.6h-1v-4h-1.4V519.7z"/>
	<path class="st0" d="M538.6,522.9c0,0.2,0.1,0.4,0.3,0.6c0.2,0.1,0.4,0.2,0.6,0.2c0.2,0,0.4-0.1,0.6-0.2c0.1-0.1,0.3-0.3,0.3-0.5
		c0.1-0.2,0.1-0.4,0.2-0.6c0-0.2,0-0.4,0.1-0.6l0,0c-0.1,0.2-0.3,0.4-0.5,0.5s-0.5,0.2-0.7,0.2s-0.5,0-0.7-0.1s-0.4-0.2-0.6-0.4
		c-0.2-0.2-0.3-0.4-0.4-0.6c-0.1-0.3-0.1-0.5-0.1-0.8s0-0.5,0.1-0.8c0.1-0.2,0.2-0.4,0.4-0.6c0.2-0.2,0.4-0.3,0.6-0.4
		c0.3-0.1,0.5-0.2,0.8-0.2s0.7,0.1,1,0.2c0.3,0.1,0.5,0.4,0.6,0.6c0.2,0.3,0.3,0.6,0.3,0.9c0.1,0.4,0.1,0.8,0.1,1.2
		c0,0.3,0,0.7-0.1,1s-0.2,0.6-0.3,0.9c-0.2,0.3-0.4,0.5-0.7,0.7s-0.6,0.3-1,0.3c-0.2,0-0.4,0-0.6-0.1c-0.2-0.1-0.4-0.2-0.5-0.3
		c-0.2-0.1-0.3-0.3-0.4-0.5c-0.1-0.2-0.2-0.4-0.2-0.6L538.6,522.9z M539.5,519.4c-0.1,0-0.3,0-0.4,0.1c-0.1,0.1-0.2,0.1-0.3,0.3
		c-0.1,0.1-0.1,0.2-0.2,0.4c0,0.1-0.1,0.3-0.1,0.4c0,0.1,0,0.3,0.1,0.4c0,0.1,0.1,0.3,0.2,0.4c0.1,0.1,0.2,0.2,0.3,0.3
		s0.3,0.1,0.4,0.1c0.2,0,0.3,0,0.5-0.1c0.1-0.1,0.2-0.1,0.3-0.3c0.1-0.1,0.2-0.2,0.2-0.4c0-0.1,0.1-0.3,0.1-0.4c0-0.1,0-0.3-0.1-0.4
		c0-0.1-0.1-0.3-0.2-0.4c-0.1-0.1-0.2-0.2-0.3-0.3C539.8,519.4,539.7,519.4,539.5,519.4L539.5,519.4z"/>
	<path class="st0" d="M565.7,524.4h-3.8c0-0.4,0.1-0.9,0.3-1.2c0.2-0.4,0.5-0.7,0.9-0.9l0.6-0.4c0.2-0.1,0.4-0.3,0.5-0.4
		c0.2-0.1,0.3-0.3,0.4-0.5c0.1-0.2,0.2-0.4,0.2-0.6c0-0.1,0-0.2,0-0.3s-0.1-0.2-0.1-0.3c-0.1-0.1-0.2-0.2-0.3-0.2
		c-0.1-0.1-0.3-0.1-0.5-0.1s-0.3,0-0.5,0.1c-0.1,0.1-0.2,0.2-0.3,0.3s-0.1,0.3-0.2,0.4c0,0.2-0.1,0.4-0.1,0.6H562
		c0-0.3,0-0.6,0.1-0.9c0.1-0.3,0.2-0.5,0.4-0.7s0.4-0.3,0.6-0.5c0.5-0.2,1.1-0.2,1.7,0c0.2,0.1,0.4,0.2,0.6,0.4
		c0.1,0.2,0.2,0.3,0.3,0.5s0.1,0.4,0.1,0.6c0,0.2,0,0.4-0.1,0.6c-0.1,0.2-0.2,0.3-0.3,0.5s-0.3,0.3-0.4,0.4l-0.5,0.4l-0.5,0.3
		l-0.4,0.3c-0.1,0.1-0.2,0.2-0.4,0.3c-0.1,0.1-0.2,0.2-0.2,0.3h2.7L565.7,524.4z"/>
	<path class="st0" d="M568.2,518.6c0.4,0,0.7,0.1,1,0.3s0.5,0.4,0.6,0.7s0.2,0.6,0.3,0.9c0.1,0.7,0.1,1.3,0,2c0,0.3-0.1,0.6-0.3,0.9
		c-0.1,0.3-0.3,0.5-0.6,0.7s-0.6,0.3-1,0.3s-0.7-0.1-1-0.3s-0.5-0.4-0.6-0.7s-0.2-0.6-0.3-0.9c-0.1-0.7-0.1-1.3,0-2
		c0-0.3,0.1-0.6,0.3-0.9c0.1-0.3,0.3-0.5,0.6-0.7C567.5,518.7,567.8,518.6,568.2,518.6z M568.2,523.7c0.2,0,0.4-0.1,0.5-0.2
		c0.1-0.1,0.3-0.3,0.3-0.5c0.1-0.2,0.1-0.5,0.2-0.7c0.1-0.6,0.1-1.1,0-1.7c0-0.2-0.1-0.5-0.2-0.7c-0.1-0.2-0.2-0.3-0.3-0.5
		c-0.1-0.1-0.3-0.2-0.5-0.2s-0.4,0.1-0.5,0.2c-0.1,0.1-0.2,0.3-0.3,0.5s-0.1,0.4-0.2,0.7c-0.1,0.6-0.1,1.1,0,1.7
		c0,0.2,0.1,0.5,0.2,0.7c0.1,0.2,0.2,0.3,0.3,0.5S568,523.7,568.2,523.7z"/>
	<path class="st0" d="M594.8,524.4H591c0-0.4,0.1-0.9,0.3-1.2c0.2-0.4,0.5-0.7,0.9-0.9l0.6-0.4c0.2-0.1,0.4-0.3,0.5-0.4
		c0.2-0.1,0.3-0.3,0.4-0.5c0.1-0.2,0.2-0.4,0.2-0.6c0-0.1,0-0.2,0-0.3s-0.1-0.2-0.1-0.3c-0.1-0.1-0.2-0.2-0.3-0.2
		c-0.1-0.1-0.3-0.1-0.5-0.1s-0.3,0-0.5,0.1c-0.1,0.1-0.2,0.2-0.3,0.3s-0.1,0.3-0.2,0.4c0,0.2-0.1,0.4-0.1,0.6H591
		c0-0.3,0-0.6,0.1-0.9c0.1-0.3,0.2-0.5,0.4-0.7s0.4-0.3,0.6-0.5c0.3-0.1,0.5-0.2,0.8-0.2s0.6,0.1,0.9,0.2c0.2,0.1,0.4,0.2,0.5,0.4
		s0.2,0.3,0.3,0.5s0.1,0.4,0.1,0.6c0,0.2,0,0.4-0.1,0.6c-0.1,0.2-0.2,0.3-0.3,0.5s-0.3,0.3-0.4,0.4l-0.5,0.4l-0.5,0.3
		c-0.2,0.1-0.3,0.2-0.4,0.3c-0.1,0.1-0.3,0.2-0.4,0.3c-0.1,0.1-0.2,0.2-0.2,0.3h2.7L594.8,524.4z"/>
	<path class="st0" d="M595.6,519.7c0.2,0,0.4,0,0.6,0c0.2,0,0.3-0.1,0.5-0.2c0.1-0.1,0.3-0.2,0.4-0.3c0.1-0.1,0.2-0.3,0.2-0.4h0.8
		v5.6h-1v-4h-1.4L595.6,519.7L595.6,519.7z"/>
	<path class="st0" d="M1.7,482.8c0.2,0,0.4,0,0.6,0s0.3-0.1,0.5-0.2c0.1-0.1,0.3-0.2,0.4-0.3c0.1-0.1,0.2-0.3,0.2-0.4h0.8v5.6h-1v-4
		H1.7V482.8z"/>
	<path class="st0" d="M6.2,459.1H2.4c0-0.4,0.1-0.9,0.3-1.2c0.2-0.4,0.5-0.7,0.9-0.9c0.2-0.1,0.4-0.3,0.6-0.4s0.4-0.3,0.5-0.4
		c0.2-0.1,0.3-0.3,0.4-0.5s0.2-0.4,0.2-0.6c0-0.1,0-0.2,0-0.3c0-0.1-0.1-0.2-0.1-0.3c-0.1-0.1-0.2-0.2-0.3-0.3
		c-0.2-0.1-0.3-0.1-0.5-0.1s-0.3,0-0.4,0.1s-0.2,0.2-0.3,0.3c-0.1,0.1-0.1,0.3-0.2,0.5c0,0.2-0.1,0.4-0.1,0.5h-1
		c0-0.3,0-0.6,0.1-0.9s0.2-0.5,0.4-0.7s0.4-0.4,0.6-0.5c0.3-0.1,0.6-0.2,0.8-0.2c0.3,0,0.6,0.1,0.9,0.2c0.2,0.1,0.4,0.2,0.6,0.4
		c0.1,0.2,0.2,0.4,0.3,0.6c0.1,0.2,0.1,0.4,0.1,0.6s0,0.4-0.1,0.6s-0.2,0.3-0.3,0.5c-0.1,0.2-0.3,0.3-0.4,0.4s-0.3,0.2-0.5,0.4
		l-0.5,0.3c-0.2,0.1-0.3,0.2-0.4,0.3c-0.1,0.1-0.2,0.2-0.4,0.3c-0.1,0.1-0.2,0.2-0.2,0.3h2.7v1H6.2z"/>
	<path class="st0" d="M3.9,427.5c0.1,0,0.3,0,0.4,0s0.3-0.1,0.4-0.1c0.1-0.1,0.2-0.2,0.3-0.3c0.2-0.3,0.1-0.7-0.1-1
		c-0.2-0.2-0.4-0.2-0.6-0.2c-0.1,0-0.3,0-0.4,0.1s-0.2,0.2-0.3,0.3c-0.1,0.1-0.1,0.2-0.2,0.4c0,0.1,0,0.3,0,0.4h-1
		c0-0.3,0.1-0.5,0.2-0.8c0.1-0.2,0.2-0.4,0.4-0.6s0.4-0.3,0.6-0.4s0.5-0.2,0.8-0.1c0.2,0,0.4,0,0.7,0.1c0.2,0.1,0.4,0.2,0.6,0.3
		c0.2,0.1,0.3,0.3,0.4,0.5s0.2,0.4,0.2,0.6c0,0.3-0.1,0.5-0.2,0.7s-0.4,0.4-0.6,0.5l0,0c0.3,0.1,0.6,0.2,0.8,0.5
		c0.2,0.3,0.3,0.6,0.3,0.9c0,0.2,0,0.5-0.2,0.7c-0.1,0.2-0.2,0.4-0.4,0.5c-0.2,0.2-0.4,0.3-0.6,0.3c-0.2,0.1-0.5,0.1-0.8,0.1
		s-0.6,0-0.8-0.1s-0.4-0.2-0.6-0.4c-0.2-0.2-0.3-0.4-0.4-0.6c-0.1-0.3-0.1-0.5-0.1-0.8h0.9c0,0.3,0.1,0.6,0.2,0.9
		c0.2,0.2,0.5,0.4,0.8,0.3c0.3,0,0.6-0.1,0.8-0.3c0.2-0.2,0.3-0.5,0.3-0.7s0-0.4-0.1-0.5s-0.2-0.2-0.3-0.3c-0.1-0.1-0.3-0.1-0.5-0.1
		s-0.4,0-0.5,0L3.9,427.5z"/>
	<path class="st0" d="M6.3,401.1H5.5v1.3H4.7v-1.3H2.3v-0.9l2.4-3.4h0.9v3.6h0.7L6.3,401.1z M3,400.4h1.7v-2.5l0,0L3,400.4z"/>
	<path class="st0" d="M3.1,368.5H6v0.8H3.7l-0.3,1.4l0,0c0.1-0.1,0.3-0.3,0.5-0.3c0.2-0.1,0.4-0.1,0.6-0.1c0.3,0,0.5,0,0.8,0.1
		c0.2,0.1,0.4,0.2,0.6,0.4c0.1,0.2,0.3,0.4,0.3,0.6c0.1,0.2,0.1,0.5,0.1,0.8c0,0.2,0,0.5-0.1,0.7s-0.2,0.5-0.3,0.6
		c-0.2,0.2-0.4,0.4-0.6,0.5c-0.3,0.1-0.6,0.2-0.9,0.2s-0.5,0-0.8-0.1c-0.2-0.1-0.4-0.2-0.6-0.3c-0.2-0.1-0.3-0.3-0.4-0.5
		c-0.1-0.2-0.2-0.5-0.2-0.7h0.9c0,0.3,0.1,0.5,0.3,0.7s0.5,0.3,0.7,0.3c0.2,0,0.3,0,0.5-0.1c0.1-0.1,0.2-0.1,0.3-0.3
		c0.1-0.1,0.1-0.2,0.2-0.4c0-0.2,0-0.3,0-0.5s0-0.3-0.1-0.5c0-0.1-0.1-0.3-0.2-0.4s-0.2-0.2-0.3-0.3C4.5,371,4.4,371,4.2,371
		c-0.2,0-0.4,0-0.5,0.1c-0.2,0.1-0.3,0.2-0.4,0.4H2.4L3.1,368.5z"/>
	<path class="st0" d="M5,341.5c0-0.2-0.1-0.4-0.3-0.5c-0.1-0.2-0.4-0.2-0.6-0.2c-0.1,0-0.3,0-0.4,0.1c-0.1,0.1-0.2,0.1-0.3,0.2
		s-0.2,0.2-0.2,0.4c0,0.1-0.1,0.3-0.1,0.4s0,0.3-0.1,0.4c0,0.1,0,0.3,0,0.4l0,0c0.1-0.2,0.3-0.4,0.5-0.5S4,342,4.2,342
		c0.3,0,0.5,0,0.7,0.1s0.4,0.2,0.6,0.4c0.1,0.2,0.3,0.4,0.3,0.6c0.1,0.2,0.1,0.5,0.1,0.8s0,0.5-0.1,0.8c-0.1,0.2-0.2,0.4-0.4,0.6
		c-0.2,0.2-0.4,0.3-0.6,0.4s-0.5,0.1-0.8,0.1s-0.7-0.1-1-0.2s-0.5-0.4-0.6-0.6c-0.2-0.3-0.3-0.6-0.3-0.9C2,343.7,2,343.3,2,343
		c0-0.3,0-0.7,0.1-1c0.1-0.3,0.2-0.6,0.3-0.9c0.2-0.3,0.4-0.5,0.7-0.7s0.6-0.3,1-0.3c0.2,0,0.4,0,0.6,0.1s0.4,0.2,0.5,0.3
		c0.2,0.1,0.3,0.3,0.4,0.5s0.2,0.4,0.2,0.6L5,341.5z M4.1,345.1c0.1,0,0.3,0,0.4-0.1s0.2-0.1,0.3-0.3c0.1-0.1,0.1-0.2,0.2-0.4
		c0-0.1,0.1-0.3,0.1-0.4s0-0.3-0.1-0.4c0-0.1-0.1-0.3-0.2-0.4s-0.2-0.2-0.3-0.3c-0.1-0.1-0.3-0.1-0.4-0.1c-0.2,0-0.3,0-0.4,0.1
		c-0.1,0.1-0.2,0.1-0.3,0.3c-0.1,0.1-0.1,0.2-0.2,0.4c0,0.1-0.1,0.3-0.1,0.4c0,0.3,0.1,0.6,0.3,0.8c0.1,0.1,0.2,0.2,0.3,0.3
		C3.8,345.1,3.9,345.1,4.1,345.1L4.1,345.1z"/>
	<path class="st0" d="M2.4,311.8h3.8v0.8c-0.3,0.3-0.6,0.6-0.8,1c-0.2,0.4-0.5,0.7-0.6,1.1c-0.2,0.4-0.3,0.8-0.4,1.3s-0.2,1-0.2,1.5
		h-1c0-0.4,0.1-0.9,0.2-1.3c0.1-0.4,0.3-0.9,0.5-1.3s0.4-0.8,0.6-1.2c0.2-0.4,0.5-0.7,0.8-1H2.4V311.8z"/>
	<path class="st0" d="M4.3,289.2c-0.3,0-0.5,0-0.8-0.1c-0.2-0.1-0.4-0.2-0.6-0.4c-0.2-0.2-0.3-0.3-0.4-0.6c-0.1-0.2-0.2-0.5-0.2-0.7
		c0-0.3,0.1-0.6,0.3-0.9c0.2-0.2,0.5-0.4,0.8-0.5l0,0c-0.2-0.1-0.4-0.2-0.6-0.4c-0.1-0.2-0.2-0.5-0.2-0.7c0-0.4,0.1-0.8,0.5-1.1
		c0.4-0.3,0.8-0.4,1.3-0.4s0.9,0.1,1.3,0.4c0.3,0.3,0.5,0.7,0.5,1.1c0,0.3-0.1,0.5-0.2,0.7S5.7,286,5.4,286l0,0
		c0.3,0.1,0.6,0.2,0.8,0.5c0.2,0.3,0.3,0.6,0.3,0.9s0,0.5-0.2,0.7c-0.1,0.2-0.2,0.4-0.4,0.6c-0.2,0.2-0.4,0.3-0.6,0.4
		C4.8,289.1,4.6,289.2,4.3,289.2z M4.3,288.4c0.3,0,0.5-0.1,0.8-0.3c0.2-0.2,0.3-0.5,0.3-0.8s-0.1-0.5-0.3-0.7
		c-0.2-0.2-0.5-0.3-0.8-0.3s-0.5,0.1-0.8,0.3c-0.2,0.2-0.3,0.5-0.3,0.7c0,0.3,0.1,0.6,0.3,0.8C3.8,288.3,4,288.4,4.3,288.4
		L4.3,288.4z M4.3,284c-0.2,0-0.4,0.1-0.6,0.2c-0.2,0.2-0.3,0.4-0.3,0.6s0.1,0.5,0.2,0.6c0.2,0.1,0.4,0.2,0.6,0.2s0.5-0.1,0.6-0.2
		c0.2-0.2,0.3-0.4,0.3-0.6s-0.1-0.5-0.3-0.6C4.8,284.1,4.5,284,4.3,284L4.3,284z"/>
	<path class="st0" d="M3.4,259.3c0,0.2,0.1,0.4,0.3,0.6c0.2,0.1,0.4,0.2,0.6,0.2c0.2,0,0.4-0.1,0.6-0.2c0.1-0.1,0.3-0.3,0.3-0.5
		c0.1-0.2,0.1-0.4,0.2-0.6c0-0.2,0.1-0.4,0.1-0.6l0,0c-0.1,0.2-0.3,0.4-0.5,0.5s-0.5,0.2-0.7,0.2c-0.3,0-0.5,0-0.7-0.1
		s-0.4-0.2-0.5-0.4c-0.2-0.2-0.3-0.4-0.4-0.6c-0.1-0.2-0.1-0.5-0.1-0.8s0-0.5,0.1-0.8c0.1-0.2,0.2-0.4,0.4-0.6
		c0.2-0.2,0.4-0.3,0.6-0.4c0-0.2,0.3-0.2,0.6-0.2s0.7,0.1,1,0.2c0.3,0.1,0.5,0.4,0.6,0.6c0.2,0.3,0.3,0.6,0.3,0.9
		c0.1,0.4,0.1,0.8,0.1,1.1c0,0.3,0,0.7-0.1,1s-0.2,0.6-0.4,0.9c-0.2,0.3-0.4,0.5-0.7,0.7c-0.3,0.2-0.6,0.3-1,0.3
		c-0.2,0-0.4,0-0.6-0.1c-0.2-0.1-0.4-0.2-0.5-0.3c-0.3-0.3-0.6-0.7-0.6-1.1L3.4,259.3L3.4,259.3z M4.2,255.7c-0.2,0-0.3,0-0.4,0.1
		c-0.1,0.1-0.2,0.1-0.3,0.3c-0.1,0.1-0.1,0.2-0.2,0.4c0,0.1-0.1,0.3-0.1,0.4s0,0.3,0.1,0.4c0,0.1,0.1,0.3,0.2,0.4
		c0.1,0.1,0.2,0.2,0.3,0.3c0.1,0.1,0.3,0.1,0.4,0.1c0.2,0,0.3,0,0.4-0.1s0.2-0.1,0.3-0.3c0.1-0.1,0.2-0.2,0.2-0.4
		c0-0.1,0.1-0.3,0.1-0.4s0-0.3-0.1-0.4c0-0.1-0.1-0.3-0.2-0.4s-0.2-0.2-0.3-0.3C4.5,255.8,4.4,255.7,4.2,255.7z"/>
	<path class="st0" d="M1.7,227.7c0.2,0,0.4,0,0.6,0s0.3-0.1,0.5-0.2c0.1-0.1,0.3-0.2,0.4-0.3c0.1-0.1,0.2-0.3,0.2-0.4h0.8v5.6h-1v-4
		H1.7V227.7z"/>
	<path class="st0" d="M7.9,226.6c0.4,0,0.7,0.1,1,0.3c0.3,0.2,0.5,0.4,0.6,0.7s0.2,0.6,0.3,0.9c0,0.3,0.1,0.7,0.1,1s0,0.7-0.1,1
		s-0.2,0.6-0.3,0.9c-0.1,0.3-0.3,0.5-0.6,0.7s-0.6,0.3-1,0.3c-0.4,0-0.7-0.1-1-0.3s-0.5-0.4-0.6-0.7s-0.2-0.6-0.3-0.9
		c0-0.3-0.1-0.7-0.1-1s0-0.7,0.1-1c0-0.3,0.1-0.6,0.3-0.9c0.1-0.3,0.3-0.5,0.6-0.7C7.2,226.7,7.6,226.6,7.9,226.6z M7.9,231.7
		c0.2,0,0.4-0.1,0.5-0.2c0.1-0.1,0.3-0.3,0.3-0.5c0.1-0.2,0.1-0.4,0.2-0.7c0-0.3,0-0.6,0-0.8c0-0.3,0-0.6,0-0.8s-0.1-0.5-0.2-0.7
		c-0.1-0.2-0.2-0.3-0.3-0.5c-0.3-0.2-0.7-0.2-1,0c-0.1,0.1-0.2,0.3-0.3,0.5C7,228.3,7,228.5,7,228.7c0,0.3,0,0.6,0,0.8
		c0,0.3,0,0.6,0,0.8s0.1,0.5,0.2,0.7s0.2,0.3,0.3,0.5C7.6,231.6,7.8,231.7,7.9,231.7L7.9,231.7z"/>
	<path class="st0" d="M1.7,199.3c0.2,0,0.4,0,0.6,0s0.3-0.1,0.5-0.2c0.1-0.1,0.3-0.2,0.4-0.3c0.1-0.1,0.2-0.3,0.2-0.4h0.8v5.6h-1v-4
		H1.7V199.3z"/>
	<path class="st0" d="M6.1,199.3c0.2,0,0.4,0,0.6,0s0.3-0.1,0.5-0.2c0.1-0.1,0.3-0.2,0.4-0.3s0.2-0.3,0.2-0.4h0.7v5.6h-1v-4H6.1
		V199.3z"/>
	<path class="st0" d="M1.7,171c0.2,0,0.4,0,0.6-0.1c0.2,0,0.3-0.1,0.5-0.2c0.1-0.1,0.3-0.2,0.4-0.3c0.1-0.1,0.2-0.3,0.2-0.4h0.8v5.6
		h-1v-4H1.7V171z"/>
	<path class="st0" d="M9.9,175.7H6c0-0.4,0.1-0.9,0.3-1.3c0.2-0.4,0.5-0.7,0.9-0.9l0.6-0.4c0.2-0.1,0.4-0.3,0.6-0.4
		c0.2-0.1,0.3-0.3,0.4-0.5c0.1-0.2,0.2-0.4,0.2-0.6c0-0.1,0-0.2,0-0.3s-0.1-0.2-0.1-0.3c-0.1-0.1-0.2-0.2-0.3-0.2
		c-0.1-0.1-0.3-0.1-0.5-0.1s-0.3,0-0.5,0.1c-0.1,0.1-0.2,0.2-0.3,0.3c-0.1,0.1-0.1,0.3-0.2,0.4c0,0.2-0.1,0.4-0.1,0.6H6
		c0-0.3,0-0.6,0.1-0.9c0.1-0.3,0.2-0.5,0.4-0.7c0.2-0.2,0.4-0.3,0.6-0.4c0.5-0.2,1.1-0.2,1.7,0c0.2,0.1,0.4,0.2,0.6,0.4
		c0.1,0.2,0.2,0.3,0.3,0.6c0.1,0.2,0.1,0.4,0.1,0.6c0,0.2,0,0.4-0.1,0.6c-0.1,0.2-0.2,0.3-0.3,0.5s-0.3,0.3-0.4,0.4l-0.5,0.4
		L8,173.9l-0.5,0.3c-0.1,0.1-0.2,0.2-0.4,0.3c-0.1,0.1-0.2,0.2-0.2,0.4h2.7L9.9,175.7z"/>
	<path class="st0" d="M1.7,142.6c0.2,0,0.4,0,0.6,0s0.3-0.1,0.5-0.2c0.1-0.1,0.3-0.2,0.4-0.3c0.1-0.1,0.2-0.3,0.2-0.4h0.8v5.6h-1v-4
		H1.7V142.6z"/>
	<path class="st0" d="M7.5,144c0.1,0,0.3,0,0.4,0s0.3-0.1,0.4-0.1c0.1-0.1,0.2-0.2,0.3-0.3s0.1-0.3,0.1-0.4c0-0.2-0.1-0.4-0.2-0.6
		c-0.2-0.2-0.4-0.2-0.6-0.2c-0.1,0-0.3,0-0.4,0.1s-0.2,0.1-0.3,0.3c-0.1,0.1-0.1,0.2-0.2,0.4c0,0.1,0,0.3,0,0.4H6
		c0-0.3,0.1-0.5,0.2-0.8c0.1-0.2,0.2-0.4,0.4-0.6c0.2-0.2,0.4-0.3,0.6-0.4c0.2-0.1,0.5-0.1,0.8-0.1c0.2,0,0.4,0,0.6,0.1
		c0.2,0.1,0.4,0.2,0.6,0.3c0.2,0.1,0.3,0.3,0.4,0.5c0.1,0.2,0.2,0.4,0.2,0.7s-0.1,0.5-0.2,0.7c-0.1,0.2-0.4,0.4-0.6,0.5l0,0
		c0.3,0.1,0.6,0.2,0.8,0.5c0.3,0.5,0.4,1.1,0.1,1.6c-0.1,0.2-0.3,0.4-0.4,0.5c-0.2,0.1-0.4,0.3-0.6,0.3c-0.2,0.1-0.5,0.1-0.8,0.1
		s-0.6,0-0.9-0.1c-0.2-0.1-0.4-0.2-0.6-0.4s-0.3-0.4-0.4-0.6C6,146,6,145.8,6,145.5h0.9c0,0.3,0.1,0.6,0.3,0.9
		c0.2,0.2,0.5,0.4,0.8,0.3c0.3,0,0.5-0.1,0.8-0.3c0.2-0.2,0.3-0.5,0.3-0.7s0-0.4-0.1-0.5s-0.2-0.2-0.3-0.3s-0.3-0.1-0.5-0.1
		s-0.4,0-0.5,0L7.5,144z"/>
	<path class="st0" d="M1.7,114.3c0.2,0,0.4,0,0.6,0s0.3-0.1,0.5-0.2c0.1-0.1,0.3-0.2,0.4-0.3c0.1-0.1,0.2-0.3,0.2-0.4h0.8v5.6h-1v-4
		H1.7V114.3z"/>
	<path class="st0" d="M9.9,117.6H9.2v1.3H8.3v-1.3H5.9v-0.9l2.4-3.3h0.9v3.6h0.7V117.6z M6.6,116.9h1.7v-2.5l0,0L6.6,116.9z"/>
	<path class="st0" d="M1.7,85.9c0.2,0,0.4,0,0.6,0s0.3-0.1,0.5-0.2c0.1-0.1,0.3-0.2,0.4-0.3c0.1-0.1,0.2-0.3,0.2-0.4h0.8v5.6h-1v-4
		H1.7V85.9z"/>
	<path class="st0" d="M6.7,85h2.9v0.8H7.4l-0.3,1.4l0,0c0.1-0.1,0.3-0.3,0.5-0.3c0.2-0.1,0.4-0.1,0.6-0.1c0.3,0,0.5,0,0.8,0.1
		c0.2,0.1,0.4,0.3,0.5,0.4c0.2,0.2,0.3,0.4,0.3,0.6c0.1,0.2,0.1,0.5,0.1,0.8c0,0.2,0,0.5-0.1,0.7S9.6,89.9,9.4,90
		c-0.2,0.2-0.4,0.4-0.6,0.5c-0.3,0.1-0.6,0.2-0.9,0.2c-0.3,0-0.5,0-0.8-0.1c-0.2-0.1-0.4-0.2-0.6-0.3c-0.2-0.1-0.3-0.3-0.4-0.5
		c0-0.2-0.1-0.5-0.1-0.7h0.9c0,0.5,0.4,0.9,0.9,0.9c0,0,0,0,0.1,0c0.2,0,0.3,0,0.5-0.1c0.1-0.1,0.2-0.2,0.3-0.3
		c0.1-0.1,0.1-0.2,0.2-0.4C8.9,89,9,88.9,9,88.7c0-0.1,0-0.3-0.1-0.4c0-0.1-0.1-0.3-0.2-0.4c-0.1-0.1-0.2-0.2-0.3-0.3
		c-0.1-0.1-0.3-0.1-0.5-0.1s-0.4,0-0.5,0.1C7.2,87.8,7,87.9,7,88.1H6.1L6.7,85z"/>
	<path class="st0" d="M1.7,57.6c0.2,0,0.4,0,0.6,0s0.3-0.1,0.5-0.2c0.1-0.1,0.3-0.2,0.4-0.3c0.1-0.1,0.2-0.3,0.2-0.4h0.8v5.6h-1v-4
		H1.7V57.6z"/>
	<path class="st0" d="M8.9,58.1c0-0.2-0.1-0.4-0.2-0.6c-0.2-0.1-0.4-0.2-0.6-0.2c-0.1,0-0.3,0-0.4,0.1s-0.2,0.1-0.3,0.3
		c-0.1,0.1-0.2,0.2-0.2,0.3C7.1,58.1,7,58.3,7,58.4c0,0.1-0.1,0.3-0.1,0.4c0,0.2,0,0.3,0,0.4l0,0C7,59,7.2,58.8,7.4,58.7
		s0.5-0.2,0.7-0.2c0.3,0,0.5,0,0.7,0.2c0.2,0.1,0.4,0.2,0.6,0.4c0.2,0.2,0.3,0.4,0.4,0.6c0.1,0.2,0.1,0.5,0.1,0.7
		c0,0.3,0,0.5-0.1,0.8c-0.1,0.2-0.2,0.4-0.4,0.6C9.2,62,9,62.1,8.8,62.2c-0.2,0.1-0.5,0.2-0.8,0.1c-0.3,0-0.7-0.1-1-0.2
		c-0.3-0.1-0.5-0.4-0.6-0.6c-0.2-0.3-0.3-0.6-0.3-0.9C6,60.2,6,59.8,6,59.4c0-0.3,0-0.7,0.1-1s0.2-0.6,0.3-0.9
		c0.2-0.3,0.4-0.5,0.7-0.7c0.3-0.2,0.6-0.3,1-0.3c0.2,0,0.4,0,0.6,0.1c0.2,0.1,0.4,0.2,0.5,0.3c0.2,0.1,0.3,0.3,0.4,0.5
		c0.1,0.2,0.2,0.4,0.2,0.6L8.9,58.1z M8,61.6c0.1,0,0.3,0,0.4-0.1c0.1-0.1,0.2-0.2,0.3-0.3s0.1-0.2,0.2-0.4C9,60.8,9,60.6,9,60.5
		s0-0.3-0.1-0.4c0-0.1-0.1-0.3-0.2-0.4c-0.2-0.2-0.5-0.4-0.7-0.3c-0.2,0-0.3,0-0.4,0.1s-0.2,0.1-0.3,0.2c-0.1,0.1-0.2,0.2-0.2,0.4
		C7,60.2,7,60.3,7,60.5c0,0.1,0,0.3,0.1,0.4c0,0.1,0.1,0.3,0.2,0.4c0.1,0.1,0.2,0.2,0.3,0.3C7.7,61.6,7.8,61.6,8,61.6z"/>
	<path class="st0" d="M1.7,29.2c0.2,0,0.4,0,0.6,0s0.3-0.1,0.5-0.2c0.1,0,0.2-0.1,0.3-0.2s0.2-0.3,0.2-0.4h0.8V34h-1v-4H1.7V29.2z"
		/>
	<path class="st0" d="M6,28.3h3.8v0.8c-0.3,0.3-0.6,0.7-0.8,1c-0.2,0.4-0.4,0.8-0.6,1.2c-0.2,0.4-0.3,0.8-0.4,1.3S7.8,33.5,7.8,34
		h-1c0-0.4,0.1-0.9,0.2-1.3c0.1-0.4,0.3-0.8,0.4-1.2c0.2-0.4,0.4-0.8,0.7-1.2c0.2-0.3,0.5-0.7,0.8-1H6V28.3z"/>
	<path class="st0" d="M1.7,0.9c0.2,0,0.4,0,0.6,0s0.3-0.1,0.5-0.2c0.1,0,0.2-0.2,0.3-0.3C3.2,0.3,3.3,0.1,3.3,0h0.8v5.6h-1v-4H1.7
		V0.9z"/>
	<path class="st0" d="M7.9,5.7c-0.3,0-0.5,0-0.8-0.1C6.9,5.5,6.7,5.4,6.5,5.2C6.4,5.1,6.2,4.9,6.1,4.7C6,4.4,6,4.2,6,3.9
		C6,3.6,6.1,3.3,6.2,3C6.4,2.8,6.7,2.6,7,2.6l0,0C6.8,2.5,6.6,2.3,6.4,2.1C6.3,1.9,6.2,1.6,6.2,1.4c0-0.4,0.1-0.8,0.4-1.1
		C7,0,7.5-0.2,8-0.1c0.5,0,0.9,0.1,1.3,0.4C9.6,0.6,9.7,1,9.7,1.4c0,0.2-0.1,0.5-0.2,0.7C9.3,2.3,9.1,2.5,8.9,2.6l0,0
		c0.3,0,0.6,0.2,0.8,0.4C9.9,3.3,10,3.6,10,3.9s0,0.5-0.1,0.7C9.7,4.9,9.5,5.1,9.4,5.2C9.2,5.4,9,5.5,8.7,5.6
		C8.5,5.7,8.2,5.7,7.9,5.7z M7.9,5c0.3,0,0.6-0.1,0.8-0.3C8.9,4.5,9,4.2,9,3.9S8.9,3.4,8.7,3.2S8.2,2.9,7.9,2.9
		C7.7,2.9,7.4,3,7.2,3.2C7,3.4,6.9,3.7,6.9,3.9c0,0.3,0.1,0.6,0.3,0.8C7.4,4.9,7.7,5,7.9,5z M7.9,0.6c-0.2,0-0.4,0.1-0.6,0.2
		C7.1,1,7,1.2,7.1,1.4c0,0.2,0.1,0.5,0.3,0.6c0.4,0.3,0.9,0.3,1.3,0C8.9,1.8,9,1.6,8.9,1.3c0-0.2-0.1-0.5-0.3-0.6
		C8.4,0.6,8.2,0.6,7.9,0.6z"/>
	<path class="st0" d="M5.1,510c0.4,0,0.7,0.1,1,0.3c0.3,0.2,0.5,0.4,0.6,0.7c0.1,0.3,0.2,0.6,0.3,0.9c0.1,0.3,0.1,0.7,0.1,1
		c0,0.3,0,0.7-0.1,1c0,0.3-0.1,0.6-0.3,0.9c-0.1,0.3-0.3,0.5-0.6,0.7c-0.3,0.2-0.6,0.3-1,0.3s-0.7-0.1-1-0.3s-0.5-0.4-0.6-0.7
		s-0.2-0.6-0.3-0.9c-0.1-0.3-0.1-0.7-0.1-1s0-0.7,0.1-1c0-0.3,0.1-0.6,0.3-0.9c0.1-0.3,0.3-0.5,0.6-0.7S4.8,510,5.1,510z M5.1,515.1
		c0.2,0,0.4-0.1,0.5-0.2c0.1-0.1,0.2-0.3,0.3-0.5c0.1-0.2,0.1-0.4,0.2-0.7c0-0.3,0-0.6,0-0.8c0-0.3,0-0.5,0-0.8
		c0-0.2-0.1-0.5-0.2-0.7s-0.2-0.3-0.3-0.5c-0.1-0.1-0.3-0.2-0.5-0.2s-0.4,0.1-0.5,0.2s-0.2,0.3-0.3,0.5c-0.1,0.2-0.1,0.5-0.2,0.7
		c0,0.3,0,0.5,0,0.8s0,0.6,0,0.8s0.1,0.5,0.2,0.7s0.2,0.3,0.3,0.5C4.8,515,5,515.1,5.1,515.1z"/>
</g>
</svg>
